<svg width="2058" height="746" viewBox="0 0 2058 746" fill="none" xmlns="http://www.w3.org/2000/svg">
<path fill-rule="evenodd" clip-rule="evenodd" d="M190.508 268.451C144.545 268.451 101.872 311.66 101.872 372.056C101.872 386.932 89.8122 398.992 74.9359 398.992C60.0596 398.992 48 386.932 48 372.056C48 288.261 108.813 214.58 190.508 214.58C225.883 214.58 254.508 224.217 276.571 242.039C298.302 259.593 311.331 283.198 319.269 307.185C333.383 349.833 333.181 400.073 333.042 434.561C333.028 437.804 333.016 440.908 333.016 443.853C333.016 458.729 320.956 470.789 306.08 470.789C291.204 470.789 279.144 458.729 279.144 443.853C279.144 441.069 279.15 438.245 279.156 435.386C279.229 399.385 279.313 357.914 268.125 324.112C262.306 306.526 254.008 293.065 242.719 283.946C231.761 275.094 215.671 268.451 190.508 268.451ZM186.966 341.205C201.841 340.974 214.086 352.845 214.317 367.719C214.363 370.693 214.404 373.716 214.445 376.78C214.96 414.885 215.561 459.372 227.522 495.529C233.794 514.489 242.557 528.935 254.217 538.565C265.425 547.82 281.556 554.5 306.537 554.112C351.627 553.413 395.14 507.384 394.112 441.136C393.881 426.261 405.752 414.016 420.627 413.785C435.501 413.554 447.746 425.426 447.977 440.3C449.324 527.06 390.677 606.685 307.373 607.978C271.466 608.535 242.356 598.637 219.914 580.103C197.923 561.943 184.627 537.389 176.376 512.449C161.634 467.885 161.011 415.063 160.579 378.405C160.539 374.973 160.5 371.683 160.451 368.555C160.221 353.681 172.092 341.436 186.966 341.205Z" fill="#F4F7F5"/>
<path d="M568 222H621.6V446.8C621.6 456.4 623.2 462.933 626.4 466.4C629.6 469.6 634 471.2 639.6 471.2C643.867 471.2 648.267 470.667 652.8 469.6C657.333 468.533 661.333 467.2 664.8 465.6L672 506.4C664.8 509.867 656.4 512.533 646.8 514.4C637.2 516.267 628.533 517.2 620.8 517.2C604 517.2 590.933 512.8 581.6 504C572.533 494.933 568 482.133 568 465.6V222ZM689.597 554.8C694.397 555.867 698.797 556.8 702.797 557.6C707.064 558.4 710.664 558.8 713.597 558.8C718.664 558.8 722.797 557.467 725.997 554.8C729.464 552.4 732.797 547.867 735.997 541.2C739.197 534.8 742.53 525.733 745.997 514L663.197 304.4H718.797L775.197 459.2L824.797 304.4H875.997L787.997 555.6C784.797 564.933 779.864 573.333 773.197 580.8C766.797 588.533 758.664 594.533 748.797 598.8C739.197 603.333 728.397 605.6 716.397 605.6C712.13 605.6 707.864 605.2 703.597 604.4C699.33 603.867 694.664 602.8 689.597 601.2V554.8ZM1099.92 514H1046.32V396.4C1046.32 379.6 1043.39 367.333 1037.52 359.6C1031.65 351.867 1023.52 348 1013.12 348C1005.92 348 998.585 349.867 991.119 353.6C983.919 357.333 977.385 362.533 971.519 369.2C965.652 375.6 961.385 383.067 958.719 391.6V514H905.119V304.4H953.519V343.2C958.852 334.133 965.652 326.533 973.919 320.4C982.185 314 991.652 309.2 1002.32 306C1013.25 302.533 1024.72 300.8 1036.72 300.8C1049.79 300.8 1060.45 303.2 1068.72 308C1077.25 312.533 1083.65 318.8 1087.92 326.8C1092.45 334.533 1095.52 343.333 1097.12 353.2C1098.99 363.067 1099.92 373.067 1099.92 383.2V514ZM1289.73 514L1228.53 423.6L1200.13 451.6V514H1146.53V222H1200.13V398.8L1284.53 304.8H1341.33L1263.33 393.6L1346.93 514H1289.73ZM1445.6 518C1427.73 518 1410.67 515.067 1394.4 509.2C1378.13 503.333 1364.13 494.667 1352.4 483.2L1371.6 448.4C1384.13 458.533 1396.4 466 1408.4 470.8C1420.67 475.6 1432.4 478 1443.6 478C1454 478 1462.27 476.133 1468.4 472.4C1474.8 468.667 1478 463.067 1478 455.6C1478 450.533 1476.27 446.667 1472.8 444C1469.33 441.067 1464.27 438.533 1457.6 436.4C1451.2 434.267 1443.33 431.867 1434 429.2C1418.53 424.133 1405.6 419.2 1395.2 414.4C1384.8 409.6 1376.93 403.6 1371.6 396.4C1366.53 388.933 1364 379.467 1364 368C1364 354.133 1367.47 342.267 1374.4 332.4C1381.6 322.267 1391.47 314.4 1404 308.8C1416.8 303.2 1431.73 300.4 1448.8 300.4C1463.73 300.4 1477.87 302.8 1491.2 307.6C1504.53 312.133 1516.67 319.6 1527.6 330L1506 364C1495.33 355.733 1485.2 349.733 1475.6 346C1466 342 1456.27 340 1446.4 340C1440.8 340 1435.47 340.667 1430.4 342C1425.6 343.333 1421.6 345.6 1418.4 348.8C1415.47 351.733 1414 356 1414 361.6C1414 366.667 1415.33 370.667 1418 373.6C1420.93 376.267 1425.2 378.667 1430.8 380.8C1436.67 382.933 1443.73 385.333 1452 388C1468.8 392.8 1482.93 397.733 1494.4 402.8C1506.13 407.867 1514.93 414.133 1520.8 421.6C1526.67 428.8 1529.6 438.8 1529.6 451.6C1529.6 472.4 1522 488.667 1506.8 500.4C1491.6 512.133 1471.2 518 1445.6 518Z" fill="#F4F7F5"/>
<path d="M1591.2 514L1688.8 290.4H1728.4L1825.6 514H1774.4L1752 461.6H1665.2L1642.8 514H1591.2ZM1708.8 349.2L1676 419.6H1740.4L1708.8 349.2ZM1854.31 514V290.4H1902.71V514H1854.31Z" fill="#F4F7F5"/>
<path d="M2028.79 373.53L2002.98 364.03L1993.48 338.205C1992.92 336.677 1991.9 335.358 1990.57 334.426C1989.23 333.494 1987.64 332.995 1986.01 332.995C1984.39 332.995 1982.8 333.494 1981.46 334.426C1980.13 335.358 1979.11 336.677 1978.54 338.205L1969.03 364L1943.21 373.5C1941.68 374.063 1940.36 375.08 1939.43 376.416C1938.5 377.752 1938 379.341 1938 380.97C1938 382.599 1938.5 384.188 1939.43 385.524C1940.36 386.86 1941.68 387.877 1943.21 388.44L1969 398L1978.5 423.81C1979.06 425.338 1980.08 426.657 1981.42 427.589C1982.75 428.521 1984.34 429.02 1985.97 429.02C1987.6 429.02 1989.19 428.521 1990.52 427.589C1991.86 426.657 1992.88 425.338 1993.44 423.81L2002.94 398.005L2028.76 388.505C2030.29 387.942 2031.61 386.925 2032.54 385.589C2033.48 384.253 2033.98 382.664 2033.98 381.035C2033.98 379.406 2033.48 377.817 2032.54 376.481C2031.61 375.145 2030.29 374.128 2028.76 373.565L2028.79 373.53ZM2000.19 390.5C1999.11 390.897 1998.13 391.524 1997.32 392.338C1996.5 393.152 1995.88 394.134 1995.48 395.215L1985.98 420.945L1976.5 395.195C1976.1 394.12 1975.48 393.143 1974.67 392.333C1973.86 391.522 1972.88 390.897 1971.8 390.5L1946.07 381L1971.8 371.5C1972.88 371.103 1973.86 370.478 1974.67 369.667C1975.48 368.857 1976.1 367.88 1976.5 366.805L1986 341.075L1995.5 366.805C1995.9 367.886 1996.52 368.868 1997.34 369.682C1998.15 370.496 1999.13 371.123 2000.21 371.52L2025.94 381.02L2000.19 390.5ZM2002 329C2002 327.939 2002.42 326.922 2003.17 326.172C2003.92 325.421 2004.94 325 2006 325H2014V317C2014 315.939 2014.42 314.922 2015.17 314.172C2015.92 313.421 2016.94 313 2018 313C2019.06 313 2020.08 313.421 2020.83 314.172C2021.58 314.922 2022 315.939 2022 317V325H2030C2031.06 325 2032.08 325.421 2032.83 326.172C2033.58 326.922 2034 327.939 2034 329C2034 330.061 2033.58 331.078 2032.83 331.828C2032.08 332.579 2031.06 333 2030 333H2022V341C2022 342.061 2021.58 343.078 2020.83 343.828C2020.08 344.579 2019.06 345 2018 345C2016.94 345 2015.92 344.579 2015.17 343.828C2014.42 343.078 2014 342.061 2014 341V333H2006C2004.94 333 2003.92 332.579 2003.17 331.828C2002.42 331.078 2002 330.061 2002 329ZM2054 353C2054 354.061 2053.58 355.078 2052.83 355.828C2052.08 356.579 2051.06 357 2050 357H2046V361C2046 362.061 2045.58 363.078 2044.83 363.828C2044.08 364.579 2043.06 365 2042 365C2040.94 365 2039.92 364.579 2039.17 363.828C2038.42 363.078 2038 362.061 2038 361V357H2034C2032.94 357 2031.92 356.579 2031.17 355.828C2030.42 355.078 2030 354.061 2030 353C2030 351.939 2030.42 350.922 2031.17 350.172C2031.92 349.421 2032.94 349 2034 349H2038V345C2038 343.939 2038.42 342.922 2039.17 342.172C2039.92 341.421 2040.94 341 2042 341C2043.06 341 2044.08 341.421 2044.83 342.172C2045.58 342.922 2046 343.939 2046 345V349H2050C2051.06 349 2052.08 349.421 2052.83 350.172C2053.58 350.922 2054 351.939 2054 353Z" fill="#F4F7F5"/>
<path d="M1978 341H1994V421H1978V341Z" fill="#F4F7F5"/>
<path d="M2025.89 372.446L2026.11 388.444L1946.11 389.554L1945.89 373.556L2025.89 372.446Z" fill="#F4F7F5"/>
<path d="M1985 357L2004.92 369.5V394.5L1985 407L1965.08 394.5V369.5L1985 357Z" fill="#F4F7F5"/>
</svg>
