<svg width="2059" height="567" viewBox="0 0 2059 567" fill="none" xmlns="http://www.w3.org/2000/svg">
<path fill-rule="evenodd" clip-rule="evenodd" d="M191.008 178.951C145.045 178.951 102.372 222.16 102.372 282.556C102.372 297.432 90.3122 309.492 75.4359 309.492C60.5596 309.492 48.5 297.432 48.5 282.556C48.5 198.761 109.313 125.08 191.008 125.08C226.383 125.08 255.008 134.717 277.071 152.539C298.802 170.093 311.831 193.698 319.769 217.685C333.883 260.333 333.681 310.573 333.542 345.061C333.528 348.304 333.516 351.408 333.516 354.353C333.516 369.229 321.456 381.289 306.58 381.289C291.704 381.289 279.644 369.229 279.644 354.353C279.644 351.569 279.65 348.745 279.656 345.886C279.729 309.885 279.813 268.414 268.625 234.612C262.806 217.026 254.508 203.565 243.219 194.446C232.261 185.594 216.171 178.951 191.008 178.951ZM187.466 251.705C202.341 251.474 214.586 263.345 214.817 278.219C214.863 281.193 214.904 284.216 214.945 287.28C215.46 325.385 216.061 369.872 228.022 406.029C234.294 424.989 243.057 439.435 254.717 449.065C265.925 458.32 282.056 465 307.037 464.612C352.127 463.913 395.64 417.884 394.612 351.636C394.381 336.761 406.252 324.516 421.127 324.285C436.001 324.054 448.246 335.926 448.477 350.8C449.824 437.56 391.177 517.185 307.873 518.478C271.966 519.035 242.856 509.137 220.414 490.603C198.423 472.443 185.127 447.889 176.876 422.949C162.134 378.385 161.511 325.563 161.079 288.905C161.039 285.473 161 282.183 160.951 279.055C160.721 264.181 172.592 251.936 187.466 251.705Z" fill="url(#paint0_linear_1885_2107)"/>
<path d="M568.5 132.5H622.1V357.3C622.1 366.9 623.7 373.433 626.9 376.9C630.1 380.1 634.5 381.7 640.1 381.7C644.367 381.7 648.767 381.167 653.3 380.1C657.833 379.033 661.833 377.7 665.3 376.1L672.5 416.9C665.3 420.367 656.9 423.033 647.3 424.9C637.7 426.767 629.033 427.7 621.3 427.7C604.5 427.7 591.433 423.3 582.1 414.5C573.033 405.433 568.5 392.633 568.5 376.1V132.5ZM690.097 465.3C694.897 466.367 699.297 467.3 703.297 468.1C707.564 468.9 711.164 469.3 714.097 469.3C719.164 469.3 723.297 467.967 726.497 465.3C729.964 462.9 733.297 458.367 736.497 451.7C739.697 445.3 743.03 436.233 746.497 424.5L663.697 214.9H719.297L775.697 369.7L825.297 214.9H876.497L788.497 466.1C785.297 475.433 780.364 483.833 773.697 491.3C767.297 499.033 759.164 505.033 749.297 509.3C739.697 513.833 728.897 516.1 716.897 516.1C712.63 516.1 708.364 515.7 704.097 514.9C699.83 514.367 695.164 513.3 690.097 511.7V465.3ZM1100.42 424.5H1046.82V306.9C1046.82 290.1 1043.89 277.833 1038.02 270.1C1032.15 262.367 1024.02 258.5 1013.62 258.5C1006.42 258.5 999.085 260.367 991.619 264.1C984.419 267.833 977.885 273.033 972.019 279.7C966.152 286.1 961.885 293.567 959.219 302.1V424.5H905.619V214.9H954.019V253.7C959.352 244.633 966.152 237.033 974.419 230.9C982.685 224.5 992.152 219.7 1002.82 216.5C1013.75 213.033 1025.22 211.3 1037.22 211.3C1050.29 211.3 1060.95 213.7 1069.22 218.5C1077.75 223.033 1084.15 229.3 1088.42 237.3C1092.95 245.033 1096.02 253.833 1097.62 263.7C1099.49 273.567 1100.42 283.567 1100.42 293.7V424.5ZM1290.23 424.5L1229.03 334.1L1200.63 362.1V424.5H1147.03V132.5H1200.63V309.3L1285.03 215.3H1341.83L1263.83 304.1L1347.43 424.5H1290.23ZM1446.1 428.5C1428.23 428.5 1411.17 425.567 1394.9 419.7C1378.63 413.833 1364.63 405.167 1352.9 393.7L1372.1 358.9C1384.63 369.033 1396.9 376.5 1408.9 381.3C1421.17 386.1 1432.9 388.5 1444.1 388.5C1454.5 388.5 1462.77 386.633 1468.9 382.9C1475.3 379.167 1478.5 373.567 1478.5 366.1C1478.5 361.033 1476.77 357.167 1473.3 354.5C1469.83 351.567 1464.77 349.033 1458.1 346.9C1451.7 344.767 1443.83 342.367 1434.5 339.7C1419.03 334.633 1406.1 329.7 1395.7 324.9C1385.3 320.1 1377.43 314.1 1372.1 306.9C1367.03 299.433 1364.5 289.967 1364.5 278.5C1364.5 264.633 1367.97 252.767 1374.9 242.9C1382.1 232.767 1391.97 224.9 1404.5 219.3C1417.3 213.7 1432.23 210.9 1449.3 210.9C1464.23 210.9 1478.37 213.3 1491.7 218.1C1505.03 222.633 1517.17 230.1 1528.1 240.5L1506.5 274.5C1495.83 266.233 1485.7 260.233 1476.1 256.5C1466.5 252.5 1456.77 250.5 1446.9 250.5C1441.3 250.5 1435.97 251.167 1430.9 252.5C1426.1 253.833 1422.1 256.1 1418.9 259.3C1415.97 262.233 1414.5 266.5 1414.5 272.1C1414.5 277.167 1415.83 281.167 1418.5 284.1C1421.43 286.767 1425.7 289.167 1431.3 291.3C1437.17 293.433 1444.23 295.833 1452.5 298.5C1469.3 303.3 1483.43 308.233 1494.9 313.3C1506.63 318.367 1515.43 324.633 1521.3 332.1C1527.17 339.3 1530.1 349.3 1530.1 362.1C1530.1 382.9 1522.5 399.167 1507.3 410.9C1492.1 422.633 1471.7 428.5 1446.1 428.5Z" fill="url(#paint1_linear_1885_2107)"/>
<path d="M1591.7 424.5L1689.3 200.9H1728.9L1826.1 424.5H1774.9L1752.5 372.1H1665.7L1643.3 424.5H1591.7ZM1709.3 259.7L1676.5 330.1H1740.9L1709.3 259.7ZM1854.81 424.5V200.9H1903.21V424.5H1854.81Z" fill="url(#paint2_linear_1885_2107)"/>
<path d="M2029.29 283.03L2003.48 273.53L1993.98 247.705C1993.42 246.177 1992.4 244.858 1991.07 243.926C1989.73 242.994 1988.14 242.495 1986.51 242.495C1984.89 242.495 1983.3 242.994 1981.96 243.926C1980.63 244.858 1979.61 246.177 1979.04 247.705L1969.53 273.5L1943.71 283C1942.18 283.563 1940.86 284.58 1939.93 285.916C1939 287.252 1938.5 288.841 1938.5 290.47C1938.5 292.099 1939 293.688 1939.93 295.024C1940.86 296.36 1942.18 297.377 1943.71 297.94L1969.5 307.5L1979 333.31C1979.56 334.838 1980.58 336.157 1981.92 337.089C1983.25 338.021 1984.84 338.52 1986.47 338.52C1988.1 338.52 1989.69 338.021 1991.02 337.089C1992.36 336.157 1993.38 334.838 1993.94 333.31L2003.44 307.505L2029.26 298.005C2030.79 297.442 2032.11 296.425 2033.04 295.089C2033.98 293.753 2034.48 292.164 2034.48 290.535C2034.48 288.906 2033.98 287.317 2033.04 285.981C2032.11 284.645 2030.79 283.628 2029.26 283.065L2029.29 283.03ZM2000.69 300C1999.61 300.397 1998.63 301.024 1997.82 301.838C1997 302.652 1996.38 303.634 1995.98 304.715L1986.48 330.445L1977 304.695C1976.6 303.62 1975.98 302.643 1975.17 301.833C1974.36 301.022 1973.38 300.397 1972.3 300L1946.57 290.5L1972.3 281C1973.38 280.603 1974.36 279.978 1975.17 279.167C1975.98 278.357 1976.6 277.38 1977 276.305L1986.5 250.575L1996 276.305C1996.4 277.386 1997.02 278.368 1997.84 279.182C1998.65 279.996 1999.63 280.623 2000.71 281.02L2026.44 290.52L2000.69 300ZM2002.5 238.5C2002.5 237.439 2002.92 236.422 2003.67 235.672C2004.42 234.921 2005.44 234.5 2006.5 234.5H2014.5V226.5C2014.5 225.439 2014.92 224.422 2015.67 223.672C2016.42 222.921 2017.44 222.5 2018.5 222.5C2019.56 222.5 2020.58 222.921 2021.33 223.672C2022.08 224.422 2022.5 225.439 2022.5 226.5V234.5H2030.5C2031.56 234.5 2032.58 234.921 2033.33 235.672C2034.08 236.422 2034.5 237.439 2034.5 238.5C2034.5 239.561 2034.08 240.578 2033.33 241.328C2032.58 242.079 2031.56 242.5 2030.5 242.5H2022.5V250.5C2022.5 251.561 2022.08 252.578 2021.33 253.328C2020.58 254.079 2019.56 254.5 2018.5 254.5C2017.44 254.5 2016.42 254.079 2015.67 253.328C2014.92 252.578 2014.5 251.561 2014.5 250.5V242.5H2006.5C2005.44 242.5 2004.42 242.079 2003.67 241.328C2002.92 240.578 2002.5 239.561 2002.5 238.5ZM2054.5 262.5C2054.5 263.561 2054.08 264.578 2053.33 265.328C2052.58 266.079 2051.56 266.5 2050.5 266.5H2046.5V270.5C2046.5 271.561 2046.08 272.578 2045.33 273.328C2044.58 274.079 2043.56 274.5 2042.5 274.5C2041.44 274.5 2040.42 274.079 2039.67 273.328C2038.92 272.578 2038.5 271.561 2038.5 270.5V266.5H2034.5C2033.44 266.5 2032.42 266.079 2031.67 265.328C2030.92 264.578 2030.5 263.561 2030.5 262.5C2030.5 261.439 2030.92 260.422 2031.67 259.672C2032.42 258.921 2033.44 258.5 2034.5 258.5H2038.5V254.5C2038.5 253.439 2038.92 252.422 2039.67 251.672C2040.42 250.921 2041.44 250.5 2042.5 250.5C2043.56 250.5 2044.58 250.921 2045.33 251.672C2046.08 252.422 2046.5 253.439 2046.5 254.5V258.5H2050.5C2051.56 258.5 2052.58 258.921 2053.33 259.672C2054.08 260.422 2054.5 261.439 2054.5 262.5Z" fill="url(#paint3_linear_1885_2107)"/>
<path d="M1978.5 250.5H1994.5V330.5H1978.5V250.5Z" fill="url(#paint4_linear_1885_2107)"/>
<path d="M2026.39 281.946L2026.61 297.944L1946.61 299.054L1946.39 283.056L2026.39 281.946Z" fill="url(#paint5_linear_1885_2107)"/>
<path d="M1985.5 266.5L2005.42 279V304L1985.5 316.5L1965.58 304V279L1985.5 266.5Z" fill="url(#paint6_linear_1885_2107)"/>
<defs>
<linearGradient id="paint0_linear_1885_2107" x1="248.5" y1="125.08" x2="248.5" y2="518.5" gradientUnits="userSpaceOnUse">
<stop stop-color="#6246EA"/>
<stop offset="1" stop-color="#EF6461"/>
</linearGradient>
<linearGradient id="paint1_linear_1885_2107" x1="1043.5" y1="48.5" x2="1043.5" y2="518.5" gradientUnits="userSpaceOnUse">
<stop stop-color="#6246EA"/>
<stop offset="1" stop-color="#EF6461"/>
</linearGradient>
<linearGradient id="paint2_linear_1885_2107" x1="1760.5" y1="48.5" x2="1760.5" y2="518.5" gradientUnits="userSpaceOnUse">
<stop stop-color="#6246EA"/>
<stop offset="1" stop-color="#EF6461"/>
</linearGradient>
<linearGradient id="paint3_linear_1885_2107" x1="1996.5" y1="222.5" x2="1996.5" y2="338.52" gradientUnits="userSpaceOnUse">
<stop stop-color="#6246EA"/>
<stop offset="1" stop-color="#EF6461"/>
</linearGradient>
<linearGradient id="paint4_linear_1885_2107" x1="1996.5" y1="222.5" x2="1996.5" y2="338.52" gradientUnits="userSpaceOnUse">
<stop stop-color="#6246EA"/>
<stop offset="1" stop-color="#EF6461"/>
</linearGradient>
<linearGradient id="paint5_linear_1885_2107" x1="1996.5" y1="222.5" x2="1996.5" y2="338.52" gradientUnits="userSpaceOnUse">
<stop stop-color="#6246EA"/>
<stop offset="1" stop-color="#EF6461"/>
</linearGradient>
<linearGradient id="paint6_linear_1885_2107" x1="1996.5" y1="222.5" x2="1996.5" y2="338.52" gradientUnits="userSpaceOnUse">
<stop stop-color="#6246EA"/>
<stop offset="1" stop-color="#EF6461"/>
</linearGradient>
</defs>
</svg>
