<svg width="972" height="283" viewBox="0 0 972 283" fill="none" xmlns="http://www.w3.org/2000/svg">
<path fill-rule="evenodd" clip-rule="evenodd" d="M95.254 89.2257C72.2726 89.2257 50.9359 110.83 50.9359 141.028C50.9359 148.466 44.9061 154.496 37.468 154.496C30.0298 154.496 24 148.466 24 141.028C24 99.1306 54.4067 62.2898 95.254 62.2898C112.941 62.2898 127.254 67.1084 138.285 76.0193C149.151 84.7965 155.665 96.5991 159.635 108.593C166.692 129.916 166.59 155.037 166.521 172.28C166.514 173.902 166.508 175.454 166.508 176.927C166.508 184.365 160.478 190.394 153.04 190.394C145.602 190.394 139.572 184.365 139.572 176.927C139.572 175.535 139.575 174.122 139.578 172.693C139.614 154.692 139.656 133.957 134.063 117.056C131.153 108.263 127.004 101.533 121.359 96.973C115.881 92.5472 107.836 89.2257 95.254 89.2257ZM93.4831 125.602C100.92 125.487 107.043 131.422 107.158 138.86C107.181 140.347 107.202 141.858 107.223 143.39C107.48 162.442 107.781 184.686 113.761 202.765C116.897 212.244 121.279 219.468 127.109 224.282C132.713 228.91 140.778 232.25 153.268 232.056C175.814 231.706 197.57 208.692 197.056 175.568C196.941 168.131 202.876 162.008 210.313 161.893C217.751 161.777 223.873 167.713 223.989 175.15C224.662 218.53 195.338 258.343 153.686 258.989C135.733 259.267 121.178 254.318 109.957 245.052C98.9617 235.972 92.3135 223.695 88.1882 211.224C80.8171 188.942 80.5057 162.532 80.2896 144.202C80.2694 142.487 80.25 140.842 80.2257 139.278C80.1103 131.84 86.0459 125.718 93.4831 125.602Z" fill="#6246EA"/>
<path d="M284 66H310.8V178.4C310.8 183.2 311.6 186.467 313.2 188.2C314.8 189.8 317 190.6 319.8 190.6C321.933 190.6 324.133 190.333 326.4 189.8C328.667 189.267 330.667 188.6 332.4 187.8L336 208.2C332.4 209.933 328.2 211.267 323.4 212.2C318.6 213.133 314.267 213.6 310.4 213.6C302 213.6 295.467 211.4 290.8 207C286.267 202.467 284 196.067 284 187.8V66ZM344.798 232.4C347.198 232.933 349.398 233.4 351.398 233.8C353.532 234.2 355.332 234.4 356.798 234.4C359.332 234.4 361.398 233.733 362.998 232.4C364.732 231.2 366.398 228.933 367.998 225.6C369.598 222.4 371.265 217.867 372.998 212L331.598 107.2H359.398L387.598 184.6L412.398 107.2H437.998L393.998 232.8C392.398 237.467 389.932 241.667 386.598 245.4C383.398 249.267 379.332 252.267 374.398 254.4C369.598 256.667 364.198 257.8 358.198 257.8C356.065 257.8 353.932 257.6 351.798 257.2C349.665 256.933 347.332 256.4 344.798 255.6V232.4ZM549.959 212H523.159V153.2C523.159 144.8 521.693 138.667 518.759 134.8C515.826 130.933 511.759 129 506.559 129C502.959 129 499.293 129.933 495.559 131.8C491.959 133.667 488.693 136.267 485.759 139.6C482.826 142.8 480.693 146.533 479.359 150.8V212H452.559V107.2H476.759V126.6C479.426 122.067 482.826 118.267 486.959 115.2C491.093 112 495.826 109.6 501.159 108C506.626 106.267 512.359 105.4 518.359 105.4C524.893 105.4 530.226 106.6 534.359 109C538.626 111.267 541.826 114.4 543.959 118.4C546.226 122.267 547.759 126.667 548.559 131.6C549.493 136.533 549.959 141.533 549.959 146.6V212ZM644.863 212L614.263 166.8L600.063 180.8V212H573.263V66H600.063V154.4L642.263 107.4H670.663L631.663 151.8L673.463 212H644.863ZM722.8 214C713.867 214 705.333 212.533 697.2 209.6C689.067 206.667 682.067 202.333 676.2 196.6L685.8 179.2C692.067 184.267 698.2 188 704.2 190.4C710.333 192.8 716.2 194 721.8 194C727 194 731.133 193.067 734.2 191.2C737.4 189.333 739 186.533 739 182.8C739 180.267 738.133 178.333 736.4 177C734.667 175.533 732.133 174.267 728.8 173.2C725.6 172.133 721.667 170.933 717 169.6C709.267 167.067 702.8 164.6 697.6 162.2C692.4 159.8 688.467 156.8 685.8 153.2C683.267 149.467 682 144.733 682 139C682 132.067 683.733 126.133 687.2 121.2C690.8 116.133 695.733 112.2 702 109.4C708.4 106.6 715.867 105.2 724.4 105.2C731.867 105.2 738.933 106.4 745.6 108.8C752.267 111.067 758.333 114.8 763.8 120L753 137C747.667 132.867 742.6 129.867 737.8 128C733 126 728.133 125 723.2 125C720.4 125 717.733 125.333 715.2 126C712.8 126.667 710.8 127.8 709.2 129.4C707.733 130.867 707 133 707 135.8C707 138.333 707.667 140.333 709 141.8C710.467 143.133 712.6 144.333 715.4 145.4C718.333 146.467 721.867 147.667 726 149C734.4 151.4 741.467 153.867 747.2 156.4C753.067 158.933 757.467 162.067 760.4 165.8C763.333 169.4 764.8 174.4 764.8 180.8C764.8 191.2 761 199.333 753.4 205.2C745.8 211.067 735.6 214 722.8 214Z" fill="#6246EA"/>
<path d="M786.44 212V167.28H804.52C809.907 167.28 814.413 168.293 818.04 170.32C821.667 172.293 824.387 174.96 826.2 178.32C828.067 181.68 829 185.413 829 189.52C829 194.053 827.987 198 825.96 201.36C823.933 204.72 821.08 207.333 817.4 209.2C813.773 211.067 809.48 212 804.52 212H786.44ZM819.16 189.6C819.16 186.827 818.573 184.427 817.4 182.4C816.28 180.32 814.627 178.693 812.44 177.52C810.307 176.347 807.667 175.76 804.52 175.76H796.12V203.52H804.52C807.72 203.52 810.387 202.933 812.52 201.76C814.707 200.533 816.36 198.853 817.48 196.72C818.6 194.587 819.16 192.213 819.16 189.6ZM857.783 212.32C854.263 212.32 851.063 211.707 848.183 210.48C845.303 209.2 842.823 207.493 840.743 205.36C838.663 203.173 837.063 200.72 835.943 198C834.823 195.28 834.263 192.48 834.263 189.6C834.263 186.613 834.85 183.787 836.023 181.12C837.196 178.4 838.85 176 840.983 173.92C843.116 171.787 845.623 170.107 848.503 168.88C851.383 167.653 854.53 167.04 857.943 167.04C861.463 167.04 864.663 167.707 867.543 169.04C870.423 170.32 872.876 172.053 874.903 174.24C876.983 176.373 878.583 178.8 879.703 181.52C880.823 184.24 881.383 187.013 881.383 189.84C881.383 192.773 880.796 195.6 879.623 198.32C878.45 200.987 876.796 203.387 874.663 205.52C872.583 207.653 870.103 209.333 867.223 210.56C864.396 211.733 861.25 212.32 857.783 212.32ZM844.023 189.68C844.023 191.493 844.343 193.253 844.983 194.96C845.623 196.613 846.53 198.107 847.703 199.44C848.876 200.773 850.316 201.84 852.023 202.64C853.783 203.387 855.73 203.76 857.863 203.76C860.05 203.76 861.996 203.36 863.703 202.56C865.41 201.707 866.823 200.613 867.943 199.28C869.116 197.893 869.996 196.373 870.583 194.72C871.223 193.013 871.543 191.307 871.543 189.6C871.543 187.787 871.223 186.053 870.583 184.4C869.943 182.747 869.036 181.28 867.863 180C866.69 178.667 865.25 177.627 863.543 176.88C861.836 176.08 859.916 175.68 857.783 175.68C855.596 175.68 853.65 176.08 851.943 176.88C850.236 177.68 848.796 178.747 847.623 180.08C846.45 181.413 845.543 182.933 844.903 184.64C844.316 186.293 844.023 187.973 844.023 189.68ZM886.529 189.28C886.529 186.56 887.062 183.893 888.129 181.28C889.195 178.613 890.742 176.213 892.769 174.08C894.795 171.947 897.275 170.24 900.209 168.96C903.142 167.68 906.502 167.04 910.289 167.04C914.715 167.04 918.555 167.947 921.809 169.76C925.062 171.573 927.435 173.92 928.929 176.8L921.489 182C920.369 179.6 918.689 177.947 916.449 177.04C914.262 176.133 912.129 175.68 910.049 175.68C907.755 175.68 905.755 176.107 904.049 176.96C902.342 177.76 900.902 178.827 899.729 180.16C898.609 181.493 897.755 182.987 897.169 184.64C896.582 186.293 896.289 187.947 896.289 189.6C896.289 191.467 896.635 193.253 897.329 194.96C898.022 196.667 898.955 198.187 900.129 199.52C901.355 200.853 902.822 201.893 904.529 202.64C906.235 203.387 908.129 203.76 910.209 203.76C911.595 203.76 913.035 203.547 914.529 203.12C916.075 202.693 917.489 202 918.769 201.04C920.049 200.08 921.035 198.827 921.729 197.28L929.729 202C928.715 204.24 927.115 206.133 924.929 207.68C922.795 209.227 920.395 210.4 917.729 211.2C915.115 212 912.502 212.4 909.889 212.4C906.475 212.4 903.329 211.76 900.449 210.48C897.569 209.147 895.089 207.387 893.009 205.2C890.929 202.96 889.329 200.48 888.209 197.76C887.089 194.987 886.529 192.16 886.529 189.28ZM965.631 179.84C965.097 179.36 964.164 178.773 962.831 178.08C961.497 177.387 959.951 176.8 958.191 176.32C956.431 175.787 954.617 175.52 952.751 175.52C950.244 175.52 948.351 175.893 947.071 176.64C945.844 177.333 945.231 178.373 945.231 179.76C945.231 180.827 945.631 181.68 946.431 182.32C947.284 182.96 948.511 183.52 950.111 184C951.764 184.48 953.764 185.013 956.111 185.6C959.257 186.4 961.977 187.307 964.271 188.32C966.617 189.333 968.404 190.667 969.631 192.32C970.911 193.973 971.551 196.187 971.551 198.96C971.551 201.467 971.071 203.6 970.111 205.36C969.151 207.067 967.817 208.453 966.111 209.52C964.457 210.587 962.537 211.36 960.351 211.84C958.217 212.32 955.977 212.56 953.631 212.56C950.004 212.56 946.404 212.053 942.831 211.04C939.257 210.027 936.084 208.64 933.311 206.88L937.631 198.48C938.377 199.173 939.524 199.947 941.071 200.8C942.671 201.6 944.564 202.32 946.751 202.96C948.991 203.547 951.337 203.84 953.791 203.84C956.191 203.84 958.004 203.493 959.231 202.8C960.511 202.107 961.151 201.147 961.151 199.92C961.151 198.747 960.617 197.813 959.551 197.12C958.537 196.427 957.124 195.813 955.311 195.28C953.497 194.747 951.337 194.16 948.831 193.52C945.791 192.72 943.257 191.813 941.231 190.8C939.257 189.733 937.764 188.427 936.751 186.88C935.791 185.28 935.311 183.333 935.311 181.04C935.311 177.947 936.084 175.36 937.631 173.28C939.231 171.2 941.364 169.627 944.031 168.56C946.751 167.493 949.711 166.96 952.911 166.96C956.324 166.96 959.471 167.467 962.351 168.48C965.231 169.44 967.711 170.587 969.791 171.92L965.631 179.84Z" fill="#1A0D4A"/>
</svg>
